<?xml version="1.0" encoding="utf-8" standalone="no"?>
<!DOCTYPE svg PUBLIC "-//W3C//DTD SVG 1.1//EN"
  "http://www.w3.org/Graphics/SVG/1.1/DTD/svg11.dtd">
<!-- Created with matplotlib (https://matplotlib.org/) -->
<svg height="288pt" version="1.1" viewBox="0 0 432 288" width="432pt" xmlns="http://www.w3.org/2000/svg" xmlns:xlink="http://www.w3.org/1999/xlink">
 <defs>
  <style type="text/css">
*{stroke-linecap:butt;stroke-linejoin:round;}
  </style>
 </defs>
 <g id="figure_1">
  <g id="patch_1">
   <path d="M 0 288 
L 432 288 
L 432 0 
L 0 0 
z
" style="fill:#ffffff;"/>
  </g>
  <g id="axes_1">
   <g id="patch_2">
    <path d="M 25.927323 259.606677 
L 430.582677 259.606677 
L 430.582677 1.417323 
L 25.927323 1.417323 
z
" style="fill:#ffffff;"/>
   </g>
   <g id="matplotlib.axis_1">
    <g id="xtick_1">
     <g id="line2d_1">
      <path clip-path="url(#pc18458034c)" d="M 37.379833 259.606677 
L 37.379833 1.417323 
" style="fill:none;stroke:#000000;stroke-linecap:square;stroke-opacity:0.1;stroke-width:0.5;"/>
     </g>
     <g id="line2d_2">
      <defs>
       <path d="M 0 0 
L 0 -3.5 
" id="mf4950af392" style="stroke:#000000;stroke-width:0.8;"/>
      </defs>
      <g>
       <use style="stroke:#000000;stroke-width:0.8;" x="37.379833" xlink:href="#mf4950af392" y="259.606677"/>
      </g>
     </g>
     <g id="text_1">
      <!-- 0.00 -->
      <defs>
       <path d="M 31.78125 66.40625 
Q 24.171875 66.40625 20.328125 58.90625 
Q 16.5 51.421875 16.5 36.375 
Q 16.5 21.390625 20.328125 13.890625 
Q 24.171875 6.390625 31.78125 6.390625 
Q 39.453125 6.390625 43.28125 13.890625 
Q 47.125 21.390625 47.125 36.375 
Q 47.125 51.421875 43.28125 58.90625 
Q 39.453125 66.40625 31.78125 66.40625 
z
M 31.78125 74.21875 
Q 44.046875 74.21875 50.515625 64.515625 
Q 56.984375 54.828125 56.984375 36.375 
Q 56.984375 17.96875 50.515625 8.265625 
Q 44.046875 -1.421875 31.78125 -1.421875 
Q 19.53125 -1.421875 13.0625 8.265625 
Q 6.59375 17.96875 6.59375 36.375 
Q 6.59375 54.828125 13.0625 64.515625 
Q 19.53125 74.21875 31.78125 74.21875 
z
" id="DejaVuSans-48"/>
       <path d="M 10.6875 12.40625 
L 21 12.40625 
L 21 0 
L 10.6875 0 
z
" id="DejaVuSans-46"/>
      </defs>
      <g transform="translate(28.473583 269.185427)scale(0.08 -0.08)">
       <use xlink:href="#DejaVuSans-48"/>
       <use x="63.623047" xlink:href="#DejaVuSans-46"/>
       <use x="95.410156" xlink:href="#DejaVuSans-48"/>
       <use x="159.033203" xlink:href="#DejaVuSans-48"/>
      </g>
     </g>
    </g>
    <g id="xtick_2">
     <g id="line2d_3">
      <path clip-path="url(#pc18458034c)" d="M 154.677115 259.606677 
L 154.677115 1.417323 
" style="fill:none;stroke:#000000;stroke-linecap:square;stroke-opacity:0.1;stroke-width:0.5;"/>
     </g>
     <g id="line2d_4">
      <g>
       <use style="stroke:#000000;stroke-width:0.8;" x="154.677115" xlink:href="#mf4950af392" y="259.606677"/>
      </g>
     </g>
     <g id="text_2">
      <!-- 0.05 -->
      <defs>
       <path d="M 10.796875 72.90625 
L 49.515625 72.90625 
L 49.515625 64.59375 
L 19.828125 64.59375 
L 19.828125 46.734375 
Q 21.96875 47.46875 24.109375 47.828125 
Q 26.265625 48.1875 28.421875 48.1875 
Q 40.625 48.1875 47.75 41.5 
Q 54.890625 34.8125 54.890625 23.390625 
Q 54.890625 11.625 47.5625 5.09375 
Q 40.234375 -1.421875 26.90625 -1.421875 
Q 22.3125 -1.421875 17.546875 -0.640625 
Q 12.796875 0.140625 7.71875 1.703125 
L 7.71875 11.625 
Q 12.109375 9.234375 16.796875 8.0625 
Q 21.484375 6.890625 26.703125 6.890625 
Q 35.15625 6.890625 40.078125 11.328125 
Q 45.015625 15.765625 45.015625 23.390625 
Q 45.015625 31 40.078125 35.4375 
Q 35.15625 39.890625 26.703125 39.890625 
Q 22.75 39.890625 18.8125 39.015625 
Q 14.890625 38.140625 10.796875 36.28125 
z
" id="DejaVuSans-53"/>
      </defs>
      <g transform="translate(145.770865 269.185427)scale(0.08 -0.08)">
       <use xlink:href="#DejaVuSans-48"/>
       <use x="63.623047" xlink:href="#DejaVuSans-46"/>
       <use x="95.410156" xlink:href="#DejaVuSans-48"/>
       <use x="159.033203" xlink:href="#DejaVuSans-53"/>
      </g>
     </g>
    </g>
    <g id="xtick_3">
     <g id="line2d_5">
      <path clip-path="url(#pc18458034c)" d="M 271.974398 259.606677 
L 271.974398 1.417323 
" style="fill:none;stroke:#000000;stroke-linecap:square;stroke-opacity:0.1;stroke-width:0.5;"/>
     </g>
     <g id="line2d_6">
      <g>
       <use style="stroke:#000000;stroke-width:0.8;" x="271.974398" xlink:href="#mf4950af392" y="259.606677"/>
      </g>
     </g>
     <g id="text_3">
      <!-- 0.10 -->
      <defs>
       <path d="M 12.40625 8.296875 
L 28.515625 8.296875 
L 28.515625 63.921875 
L 10.984375 60.40625 
L 10.984375 69.390625 
L 28.421875 72.90625 
L 38.28125 72.90625 
L 38.28125 8.296875 
L 54.390625 8.296875 
L 54.390625 0 
L 12.40625 0 
z
" id="DejaVuSans-49"/>
      </defs>
      <g transform="translate(263.068148 269.185427)scale(0.08 -0.08)">
       <use xlink:href="#DejaVuSans-48"/>
       <use x="63.623047" xlink:href="#DejaVuSans-46"/>
       <use x="95.410156" xlink:href="#DejaVuSans-49"/>
       <use x="159.033203" xlink:href="#DejaVuSans-48"/>
      </g>
     </g>
    </g>
    <g id="xtick_4">
     <g id="line2d_7">
      <path clip-path="url(#pc18458034c)" d="M 389.27168 259.606677 
L 389.27168 1.417323 
" style="fill:none;stroke:#000000;stroke-linecap:square;stroke-opacity:0.1;stroke-width:0.5;"/>
     </g>
     <g id="line2d_8">
      <g>
       <use style="stroke:#000000;stroke-width:0.8;" x="389.27168" xlink:href="#mf4950af392" y="259.606677"/>
      </g>
     </g>
     <g id="text_4">
      <!-- 0.15 -->
      <g transform="translate(380.36543 269.185427)scale(0.08 -0.08)">
       <use xlink:href="#DejaVuSans-48"/>
       <use x="63.623047" xlink:href="#DejaVuSans-46"/>
       <use x="95.410156" xlink:href="#DejaVuSans-49"/>
       <use x="159.033203" xlink:href="#DejaVuSans-53"/>
      </g>
     </g>
    </g>
    <g id="text_5">
     <!-- $ t/T_{\rm{sec}} $ -->
     <defs>
      <path d="M 42.28125 54.6875 
L 40.921875 47.703125 
L 23 47.703125 
L 17.1875 18.015625 
Q 16.890625 16.359375 16.75 15.234375 
Q 16.609375 14.109375 16.609375 13.484375 
Q 16.609375 10.359375 18.484375 8.9375 
Q 20.359375 7.515625 24.515625 7.515625 
L 33.59375 7.515625 
L 32.078125 0 
L 23.484375 0 
Q 15.484375 0 11.546875 3.125 
Q 7.625 6.25 7.625 12.59375 
Q 7.625 13.71875 7.765625 15.0625 
Q 7.90625 16.40625 8.203125 18.015625 
L 14.015625 47.703125 
L 6.390625 47.703125 
L 7.8125 54.6875 
L 15.28125 54.6875 
L 18.3125 70.21875 
L 27.296875 70.21875 
L 24.3125 54.6875 
z
" id="DejaVuSans-Oblique-116"/>
      <path d="M 25.390625 72.90625 
L 33.6875 72.90625 
L 8.296875 -9.28125 
L 0 -9.28125 
z
" id="DejaVuSans-47"/>
      <path d="M 5.90625 72.90625 
L 67.578125 72.90625 
L 66.015625 64.59375 
L 39.984375 64.59375 
L 27.484375 0 
L 17.578125 0 
L 30.078125 64.59375 
L 4.296875 64.59375 
z
" id="DejaVuSans-Oblique-84"/>
      <path d="M 44.28125 53.078125 
L 44.28125 44.578125 
Q 40.484375 46.53125 36.375 47.5 
Q 32.28125 48.484375 27.875 48.484375 
Q 21.1875 48.484375 17.84375 46.4375 
Q 14.5 44.390625 14.5 40.28125 
Q 14.5 37.15625 16.890625 35.375 
Q 19.28125 33.59375 26.515625 31.984375 
L 29.59375 31.296875 
Q 39.15625 29.25 43.1875 25.515625 
Q 47.21875 21.78125 47.21875 15.09375 
Q 47.21875 7.46875 41.1875 3.015625 
Q 35.15625 -1.421875 24.609375 -1.421875 
Q 20.21875 -1.421875 15.453125 -0.5625 
Q 10.6875 0.296875 5.421875 2 
L 5.421875 11.28125 
Q 10.40625 8.6875 15.234375 7.390625 
Q 20.0625 6.109375 24.8125 6.109375 
Q 31.15625 6.109375 34.5625 8.28125 
Q 37.984375 10.453125 37.984375 14.40625 
Q 37.984375 18.0625 35.515625 20.015625 
Q 33.0625 21.96875 24.703125 23.78125 
L 21.578125 24.515625 
Q 13.234375 26.265625 9.515625 29.90625 
Q 5.8125 33.546875 5.8125 39.890625 
Q 5.8125 47.609375 11.28125 51.796875 
Q 16.75 56 26.8125 56 
Q 31.78125 56 36.171875 55.265625 
Q 40.578125 54.546875 44.28125 53.078125 
z
" id="DejaVuSans-115"/>
      <path d="M 56.203125 29.59375 
L 56.203125 25.203125 
L 14.890625 25.203125 
Q 15.484375 15.921875 20.484375 11.0625 
Q 25.484375 6.203125 34.421875 6.203125 
Q 39.59375 6.203125 44.453125 7.46875 
Q 49.3125 8.734375 54.109375 11.28125 
L 54.109375 2.78125 
Q 49.265625 0.734375 44.1875 -0.34375 
Q 39.109375 -1.421875 33.890625 -1.421875 
Q 20.796875 -1.421875 13.15625 6.1875 
Q 5.515625 13.8125 5.515625 26.8125 
Q 5.515625 40.234375 12.765625 48.109375 
Q 20.015625 56 32.328125 56 
Q 43.359375 56 49.78125 48.890625 
Q 56.203125 41.796875 56.203125 29.59375 
z
M 47.21875 32.234375 
Q 47.125 39.59375 43.09375 43.984375 
Q 39.0625 48.390625 32.421875 48.390625 
Q 24.90625 48.390625 20.390625 44.140625 
Q 15.875 39.890625 15.1875 32.171875 
z
" id="DejaVuSans-101"/>
      <path d="M 48.78125 52.59375 
L 48.78125 44.1875 
Q 44.96875 46.296875 41.140625 47.34375 
Q 37.3125 48.390625 33.40625 48.390625 
Q 24.65625 48.390625 19.8125 42.84375 
Q 14.984375 37.3125 14.984375 27.296875 
Q 14.984375 17.28125 19.8125 11.734375 
Q 24.65625 6.203125 33.40625 6.203125 
Q 37.3125 6.203125 41.140625 7.25 
Q 44.96875 8.296875 48.78125 10.40625 
L 48.78125 2.09375 
Q 45.015625 0.34375 40.984375 -0.53125 
Q 36.96875 -1.421875 32.421875 -1.421875 
Q 20.0625 -1.421875 12.78125 6.34375 
Q 5.515625 14.109375 5.515625 27.296875 
Q 5.515625 40.671875 12.859375 48.328125 
Q 20.21875 56 33.015625 56 
Q 37.15625 56 41.109375 55.140625 
Q 45.0625 54.296875 48.78125 52.59375 
z
" id="DejaVuSans-99"/>
     </defs>
     <g transform="translate(214.23 283.207458)scale(0.11 -0.11)">
      <use transform="translate(0 0.09375)" xlink:href="#DejaVuSans-Oblique-116"/>
      <use transform="translate(39.208984 0.09375)" xlink:href="#DejaVuSans-47"/>
      <use transform="translate(72.900391 0.09375)" xlink:href="#DejaVuSans-Oblique-84"/>
      <use transform="translate(133.984375 -16.3125)scale(0.7)" xlink:href="#DejaVuSans-115"/>
      <use transform="translate(170.454102 -16.3125)scale(0.7)" xlink:href="#DejaVuSans-101"/>
      <use transform="translate(213.520508 -16.3125)scale(0.7)" xlink:href="#DejaVuSans-99"/>
     </g>
    </g>
   </g>
   <g id="matplotlib.axis_2">
    <g id="ytick_1">
     <g id="line2d_9">
      <path clip-path="url(#pc18458034c)" d="M 25.927323 252.299431 
L 430.582677 252.299431 
" style="fill:none;stroke:#000000;stroke-linecap:square;stroke-opacity:0.1;stroke-width:0.5;"/>
     </g>
     <g id="line2d_10">
      <defs>
       <path d="M 0 0 
L 3.5 0 
" id="m1d3cfa025c" style="stroke:#000000;stroke-width:0.8;"/>
      </defs>
      <g>
       <use style="stroke:#000000;stroke-width:0.8;" x="25.927323" xlink:href="#m1d3cfa025c" y="252.299431"/>
      </g>
     </g>
     <g id="text_6">
      <!-- 0 -->
      <g transform="translate(17.337323 255.338806)scale(0.08 -0.08)">
       <use xlink:href="#DejaVuSans-48"/>
      </g>
     </g>
    </g>
    <g id="ytick_2">
     <g id="line2d_11">
      <path clip-path="url(#pc18458034c)" d="M 25.927323 171.444467 
L 430.582677 171.444467 
" style="fill:none;stroke:#000000;stroke-linecap:square;stroke-opacity:0.1;stroke-width:0.5;"/>
     </g>
     <g id="line2d_12">
      <g>
       <use style="stroke:#000000;stroke-width:0.8;" x="25.927323" xlink:href="#m1d3cfa025c" y="171.444467"/>
      </g>
     </g>
     <g id="text_7">
      <!-- 1 -->
      <g transform="translate(17.337323 174.483842)scale(0.08 -0.08)">
       <use xlink:href="#DejaVuSans-49"/>
      </g>
     </g>
    </g>
    <g id="ytick_3">
     <g id="line2d_13">
      <path clip-path="url(#pc18458034c)" d="M 25.927323 90.589502 
L 430.582677 90.589502 
" style="fill:none;stroke:#000000;stroke-linecap:square;stroke-opacity:0.1;stroke-width:0.5;"/>
     </g>
     <g id="line2d_14">
      <g>
       <use style="stroke:#000000;stroke-width:0.8;" x="25.927323" xlink:href="#m1d3cfa025c" y="90.589502"/>
      </g>
     </g>
     <g id="text_8">
      <!-- 2 -->
      <defs>
       <path d="M 19.1875 8.296875 
L 53.609375 8.296875 
L 53.609375 0 
L 7.328125 0 
L 7.328125 8.296875 
Q 12.9375 14.109375 22.625 23.890625 
Q 32.328125 33.6875 34.8125 36.53125 
Q 39.546875 41.84375 41.421875 45.53125 
Q 43.3125 49.21875 43.3125 52.78125 
Q 43.3125 58.59375 39.234375 62.25 
Q 35.15625 65.921875 28.609375 65.921875 
Q 23.96875 65.921875 18.8125 64.3125 
Q 13.671875 62.703125 7.8125 59.421875 
L 7.8125 69.390625 
Q 13.765625 71.78125 18.9375 73 
Q 24.125 74.21875 28.421875 74.21875 
Q 39.75 74.21875 46.484375 68.546875 
Q 53.21875 62.890625 53.21875 53.421875 
Q 53.21875 48.921875 51.53125 44.890625 
Q 49.859375 40.875 45.40625 35.40625 
Q 44.1875 33.984375 37.640625 27.21875 
Q 31.109375 20.453125 19.1875 8.296875 
z
" id="DejaVuSans-50"/>
      </defs>
      <g transform="translate(17.337323 93.628877)scale(0.08 -0.08)">
       <use xlink:href="#DejaVuSans-50"/>
      </g>
     </g>
    </g>
    <g id="ytick_4">
     <g id="line2d_15">
      <path clip-path="url(#pc18458034c)" d="M 25.927323 9.734537 
L 430.582677 9.734537 
" style="fill:none;stroke:#000000;stroke-linecap:square;stroke-opacity:0.1;stroke-width:0.5;"/>
     </g>
     <g id="line2d_16">
      <g>
       <use style="stroke:#000000;stroke-width:0.8;" x="25.927323" xlink:href="#m1d3cfa025c" y="9.734537"/>
      </g>
     </g>
     <g id="text_9">
      <!-- 3 -->
      <defs>
       <path d="M 40.578125 39.3125 
Q 47.65625 37.796875 51.625 33 
Q 55.609375 28.21875 55.609375 21.1875 
Q 55.609375 10.40625 48.1875 4.484375 
Q 40.765625 -1.421875 27.09375 -1.421875 
Q 22.515625 -1.421875 17.65625 -0.515625 
Q 12.796875 0.390625 7.625 2.203125 
L 7.625 11.71875 
Q 11.71875 9.328125 16.59375 8.109375 
Q 21.484375 6.890625 26.8125 6.890625 
Q 36.078125 6.890625 40.9375 10.546875 
Q 45.796875 14.203125 45.796875 21.1875 
Q 45.796875 27.640625 41.28125 31.265625 
Q 36.765625 34.90625 28.71875 34.90625 
L 20.21875 34.90625 
L 20.21875 43.015625 
L 29.109375 43.015625 
Q 36.375 43.015625 40.234375 45.921875 
Q 44.09375 48.828125 44.09375 54.296875 
Q 44.09375 59.90625 40.109375 62.90625 
Q 36.140625 65.921875 28.71875 65.921875 
Q 24.65625 65.921875 20.015625 65.03125 
Q 15.375 64.15625 9.8125 62.3125 
L 9.8125 71.09375 
Q 15.4375 72.65625 20.34375 73.4375 
Q 25.25 74.21875 29.59375 74.21875 
Q 40.828125 74.21875 47.359375 69.109375 
Q 53.90625 64.015625 53.90625 55.328125 
Q 53.90625 49.265625 50.4375 45.09375 
Q 46.96875 40.921875 40.578125 39.3125 
z
" id="DejaVuSans-51"/>
      </defs>
      <g transform="translate(17.337323 12.773912)scale(0.08 -0.08)">
       <use xlink:href="#DejaVuSans-51"/>
      </g>
     </g>
    </g>
    <g id="text_10">
     <!-- $ \rm{Teplota \,\,[mK]}$ -->
     <defs>
      <path d="M -0.296875 72.90625 
L 61.375 72.90625 
L 61.375 64.59375 
L 35.5 64.59375 
L 35.5 0 
L 25.59375 0 
L 25.59375 64.59375 
L -0.296875 64.59375 
z
" id="DejaVuSans-84"/>
      <path d="M 18.109375 8.203125 
L 18.109375 -20.796875 
L 9.078125 -20.796875 
L 9.078125 54.6875 
L 18.109375 54.6875 
L 18.109375 46.390625 
Q 20.953125 51.265625 25.265625 53.625 
Q 29.59375 56 35.59375 56 
Q 45.5625 56 51.78125 48.09375 
Q 58.015625 40.1875 58.015625 27.296875 
Q 58.015625 14.40625 51.78125 6.484375 
Q 45.5625 -1.421875 35.59375 -1.421875 
Q 29.59375 -1.421875 25.265625 0.953125 
Q 20.953125 3.328125 18.109375 8.203125 
z
M 48.6875 27.296875 
Q 48.6875 37.203125 44.609375 42.84375 
Q 40.53125 48.484375 33.40625 48.484375 
Q 26.265625 48.484375 22.1875 42.84375 
Q 18.109375 37.203125 18.109375 27.296875 
Q 18.109375 17.390625 22.1875 11.75 
Q 26.265625 6.109375 33.40625 6.109375 
Q 40.53125 6.109375 44.609375 11.75 
Q 48.6875 17.390625 48.6875 27.296875 
z
" id="DejaVuSans-112"/>
      <path d="M 9.421875 75.984375 
L 18.40625 75.984375 
L 18.40625 0 
L 9.421875 0 
z
" id="DejaVuSans-108"/>
      <path d="M 30.609375 48.390625 
Q 23.390625 48.390625 19.1875 42.75 
Q 14.984375 37.109375 14.984375 27.296875 
Q 14.984375 17.484375 19.15625 11.84375 
Q 23.34375 6.203125 30.609375 6.203125 
Q 37.796875 6.203125 41.984375 11.859375 
Q 46.1875 17.53125 46.1875 27.296875 
Q 46.1875 37.015625 41.984375 42.703125 
Q 37.796875 48.390625 30.609375 48.390625 
z
M 30.609375 56 
Q 42.328125 56 49.015625 48.375 
Q 55.71875 40.765625 55.71875 27.296875 
Q 55.71875 13.875 49.015625 6.21875 
Q 42.328125 -1.421875 30.609375 -1.421875 
Q 18.84375 -1.421875 12.171875 6.21875 
Q 5.515625 13.875 5.515625 27.296875 
Q 5.515625 40.765625 12.171875 48.375 
Q 18.84375 56 30.609375 56 
z
" id="DejaVuSans-111"/>
      <path d="M 18.3125 70.21875 
L 18.3125 54.6875 
L 36.8125 54.6875 
L 36.8125 47.703125 
L 18.3125 47.703125 
L 18.3125 18.015625 
Q 18.3125 11.328125 20.140625 9.421875 
Q 21.96875 7.515625 27.59375 7.515625 
L 36.8125 7.515625 
L 36.8125 0 
L 27.59375 0 
Q 17.1875 0 13.234375 3.875 
Q 9.28125 7.765625 9.28125 18.015625 
L 9.28125 47.703125 
L 2.6875 47.703125 
L 2.6875 54.6875 
L 9.28125 54.6875 
L 9.28125 70.21875 
z
" id="DejaVuSans-116"/>
      <path d="M 34.28125 27.484375 
Q 23.390625 27.484375 19.1875 25 
Q 14.984375 22.515625 14.984375 16.5 
Q 14.984375 11.71875 18.140625 8.90625 
Q 21.296875 6.109375 26.703125 6.109375 
Q 34.1875 6.109375 38.703125 11.40625 
Q 43.21875 16.703125 43.21875 25.484375 
L 43.21875 27.484375 
z
M 52.203125 31.203125 
L 52.203125 0 
L 43.21875 0 
L 43.21875 8.296875 
Q 40.140625 3.328125 35.546875 0.953125 
Q 30.953125 -1.421875 24.3125 -1.421875 
Q 15.921875 -1.421875 10.953125 3.296875 
Q 6 8.015625 6 15.921875 
Q 6 25.140625 12.171875 29.828125 
Q 18.359375 34.515625 30.609375 34.515625 
L 43.21875 34.515625 
L 43.21875 35.40625 
Q 43.21875 41.609375 39.140625 45 
Q 35.0625 48.390625 27.6875 48.390625 
Q 23 48.390625 18.546875 47.265625 
Q 14.109375 46.140625 10.015625 43.890625 
L 10.015625 52.203125 
Q 14.9375 54.109375 19.578125 55.046875 
Q 24.21875 56 28.609375 56 
Q 40.484375 56 46.34375 49.84375 
Q 52.203125 43.703125 52.203125 31.203125 
z
" id="DejaVuSans-97"/>
      <path d="M 8.59375 75.984375 
L 29.296875 75.984375 
L 29.296875 69 
L 17.578125 69 
L 17.578125 -6.203125 
L 29.296875 -6.203125 
L 29.296875 -13.1875 
L 8.59375 -13.1875 
z
" id="DejaVuSans-91"/>
      <path d="M 52 44.1875 
Q 55.375 50.25 60.0625 53.125 
Q 64.75 56 71.09375 56 
Q 79.640625 56 84.28125 50.015625 
Q 88.921875 44.046875 88.921875 33.015625 
L 88.921875 0 
L 79.890625 0 
L 79.890625 32.71875 
Q 79.890625 40.578125 77.09375 44.375 
Q 74.3125 48.1875 68.609375 48.1875 
Q 61.625 48.1875 57.5625 43.546875 
Q 53.515625 38.921875 53.515625 30.90625 
L 53.515625 0 
L 44.484375 0 
L 44.484375 32.71875 
Q 44.484375 40.625 41.703125 44.40625 
Q 38.921875 48.1875 33.109375 48.1875 
Q 26.21875 48.1875 22.15625 43.53125 
Q 18.109375 38.875 18.109375 30.90625 
L 18.109375 0 
L 9.078125 0 
L 9.078125 54.6875 
L 18.109375 54.6875 
L 18.109375 46.1875 
Q 21.1875 51.21875 25.484375 53.609375 
Q 29.78125 56 35.6875 56 
Q 41.65625 56 45.828125 52.96875 
Q 50 49.953125 52 44.1875 
z
" id="DejaVuSans-109"/>
      <path d="M 9.8125 72.90625 
L 19.671875 72.90625 
L 19.671875 42.09375 
L 52.390625 72.90625 
L 65.09375 72.90625 
L 28.90625 38.921875 
L 67.671875 0 
L 54.6875 0 
L 19.671875 35.109375 
L 19.671875 0 
L 9.8125 0 
z
" id="DejaVuSans-75"/>
      <path d="M 30.421875 75.984375 
L 30.421875 -13.1875 
L 9.71875 -13.1875 
L 9.71875 -6.203125 
L 21.390625 -6.203125 
L 21.390625 69 
L 9.71875 69 
L 9.71875 75.984375 
z
" id="DejaVuSans-93"/>
     </defs>
     <g transform="translate(11.027323 166.262)rotate(-90)scale(0.11 -0.11)">
      <use transform="translate(0 0.015625)" xlink:href="#DejaVuSans-84"/>
      <use transform="translate(61.083984 0.015625)" xlink:href="#DejaVuSans-101"/>
      <use transform="translate(122.607422 0.015625)" xlink:href="#DejaVuSans-112"/>
      <use transform="translate(186.083984 0.015625)" xlink:href="#DejaVuSans-108"/>
      <use transform="translate(213.867188 0.015625)" xlink:href="#DejaVuSans-111"/>
      <use transform="translate(275.048828 0.015625)" xlink:href="#DejaVuSans-116"/>
      <use transform="translate(314.257812 0.015625)" xlink:href="#DejaVuSans-97"/>
      <use transform="translate(408.008462 0.015625)" xlink:href="#DejaVuSans-91"/>
      <use transform="translate(447.022134 0.015625)" xlink:href="#DejaVuSans-109"/>
      <use transform="translate(544.434243 0.015625)" xlink:href="#DejaVuSans-75"/>
      <use transform="translate(610.010415 0.015625)" xlink:href="#DejaVuSans-93"/>
     </g>
    </g>
   </g>
   <g id="line2d_17">
    <path clip-path="url(#pc18458034c)" d="M 37.379833 252.299431 
L 38.016083 252.241599 
L 39.288585 251.780308 
L 40.561086 250.865002 
L 41.833587 249.510115 
L 43.106088 247.737014 
L 44.378589 245.573663 
L 45.65109 243.054178 
L 47.559842 238.695502 
L 49.468593 233.780506 
L 52.649846 224.831815 
L 57.1036 212.202611 
L 59.012352 207.287615 
L 60.921103 202.928939 
L 62.193605 200.409454 
L 63.466106 198.246103 
L 64.738607 196.473002 
L 66.011108 195.118115 
L 67.283609 194.202809 
L 68.55611 193.741518 
L 69.192361 193.683686 
L 69.828611 193.741518 
L 71.101112 194.202809 
L 72.373614 195.118115 
L 73.646115 196.473002 
L 74.918616 198.246103 
L 76.191117 200.409454 
L 77.463618 202.928939 
L 79.37237 207.287615 
L 81.281121 212.202611 
L 84.462374 221.151302 
L 88.916128 233.780506 
L 90.82488 238.695502 
L 92.733631 243.054178 
L 94.006132 245.573663 
L 95.278634 247.737014 
L 96.551135 249.510115 
L 97.823636 250.865002 
L 99.096137 251.780308 
L 100.368638 252.241599 
L 101.004889 252.299431 
L 101.641139 252.241599 
L 102.91364 251.780308 
L 104.186141 250.865002 
L 105.458642 249.510115 
L 106.731144 247.737014 
L 108.003645 245.573663 
L 109.276146 243.054178 
L 111.184897 238.695502 
L 113.093649 233.780506 
L 116.274902 224.831815 
L 120.728656 212.202611 
L 122.637408 207.287615 
L 124.546159 202.928939 
L 125.81866 200.409454 
L 127.091161 198.246103 
L 128.363663 196.473002 
L 129.636164 195.118115 
L 130.908665 194.202809 
L 132.181166 193.741518 
L 132.817416 193.683686 
L 133.453667 193.741518 
L 134.726168 194.202809 
L 135.998669 195.118115 
L 137.27117 196.473002 
L 138.543671 198.246103 
L 139.816173 200.409454 
L 141.088674 202.928939 
L 142.997425 207.287615 
L 144.906177 212.202611 
L 148.08743 221.151302 
L 152.541184 233.780506 
L 154.449935 238.695502 
L 156.358687 243.054178 
L 157.631188 245.573663 
L 158.903689 247.737014 
L 160.17619 249.510115 
L 161.448692 250.865002 
L 162.721193 251.780308 
L 163.993694 252.241599 
L 164.629944 252.299431 
L 165.266195 252.241599 
L 166.538696 251.780308 
L 167.811197 250.865002 
L 169.083698 249.510115 
L 170.356199 247.737014 
L 171.6287 245.573663 
L 172.901202 243.054178 
L 174.809953 238.695502 
L 176.718705 233.780506 
L 179.899958 224.831815 
L 184.353712 212.202611 
L 186.262463 207.287615 
L 188.171215 202.928939 
L 189.443716 200.409454 
L 190.716217 198.246103 
L 191.988718 196.473002 
L 193.261219 195.118115 
L 194.53372 194.202809 
L 195.806222 193.741518 
L 196.442472 193.683686 
L 197.078723 193.741518 
L 198.351224 194.202809 
L 199.623725 195.118115 
L 200.896226 196.473002 
L 202.168727 198.246103 
L 203.441228 200.409454 
L 204.713729 202.928939 
L 206.622481 207.287615 
L 208.531233 212.202611 
L 211.712486 221.151302 
L 216.166239 233.780506 
L 218.074991 238.695502 
L 219.983743 243.054178 
L 221.256244 245.573663 
L 222.528745 247.737014 
L 223.801246 249.510115 
L 225.073747 250.865002 
L 226.346248 251.780308 
L 227.618749 252.241599 
L 228.255 252.299431 
L 228.891251 252.241599 
L 230.163752 251.780308 
L 231.436253 250.865002 
L 232.708754 249.510115 
L 233.981255 247.737014 
L 235.253756 245.573663 
L 236.526257 243.054178 
L 238.435009 238.695502 
L 240.343761 233.780506 
L 243.525013 224.831815 
L 247.978767 212.202611 
L 249.887519 207.287615 
L 251.796271 202.928939 
L 253.068772 200.409454 
L 254.341273 198.246103 
L 255.613774 196.473002 
L 256.886275 195.118115 
L 258.158776 194.202809 
L 259.431277 193.741518 
L 260.067528 193.683686 
L 260.703778 193.741518 
L 261.97628 194.202809 
L 263.248781 195.118115 
L 264.521282 196.473002 
L 265.793783 198.246103 
L 267.066284 200.409454 
L 268.338785 202.928939 
L 270.247537 207.287615 
L 272.156288 212.202611 
L 275.337541 221.151302 
L 279.791295 233.780506 
L 281.700047 238.695502 
L 283.608798 243.054178 
L 284.8813 245.573663 
L 286.153801 247.737014 
L 287.426302 249.510115 
L 288.698803 250.865002 
L 289.971304 251.780308 
L 291.243805 252.241599 
L 291.880056 252.299431 
L 292.516306 252.241599 
L 293.788807 251.780308 
L 295.061308 250.865002 
L 296.33381 249.510115 
L 297.606311 247.737014 
L 298.878812 245.573663 
L 300.151313 243.054178 
L 302.060065 238.695502 
L 303.968816 233.780506 
L 307.150069 224.831815 
L 311.603823 212.202611 
L 313.512575 207.287615 
L 315.421326 202.928939 
L 316.693827 200.409454 
L 317.966329 198.246103 
L 319.23883 196.473002 
L 320.511331 195.118115 
L 321.783832 194.202809 
L 323.056333 193.741518 
L 323.692584 193.683686 
L 324.328834 193.741518 
L 325.601335 194.202809 
L 326.873836 195.118115 
L 328.146337 196.473002 
L 329.418839 198.246103 
L 330.69134 200.409454 
L 331.963841 202.928939 
L 333.872592 207.287615 
L 335.781344 212.202611 
L 338.962597 221.151302 
L 343.416351 233.780506 
L 345.325103 238.695502 
L 347.233854 243.054178 
L 348.506355 245.573663 
L 349.778856 247.737014 
L 351.051358 249.510115 
L 352.323859 250.865002 
L 353.59636 251.780308 
L 354.868861 252.241599 
L 355.505111 252.299431 
L 356.141362 252.241599 
L 357.413863 251.780308 
L 358.686364 250.865002 
L 359.958865 249.510115 
L 361.231366 247.737014 
L 362.503868 245.573663 
L 363.776369 243.054178 
L 365.68512 238.695502 
L 367.593872 233.780506 
L 370.775125 224.831815 
L 375.228879 212.202611 
L 377.13763 207.287615 
L 379.046382 202.928939 
L 380.318883 200.409454 
L 381.591384 198.246103 
L 382.863885 196.473002 
L 384.136386 195.118115 
L 385.408888 194.202809 
L 386.681389 193.741518 
L 387.317639 193.683686 
L 387.95389 193.741518 
L 389.226391 194.202809 
L 390.498892 195.118115 
L 391.771393 196.473002 
L 393.043894 198.246103 
L 394.316395 200.409454 
L 395.588897 202.928939 
L 397.497648 207.287615 
L 399.4064 212.202611 
L 402.587653 221.151302 
L 407.041407 233.780506 
L 408.950158 238.695502 
L 410.85891 243.054178 
L 412.131411 245.573663 
L 413.403912 247.737014 
L 414.676413 249.510115 
L 415.948914 250.865002 
L 417.221415 251.780308 
L 418.493917 252.241599 
L 419.130167 252.299431 
L 419.130167 252.299431 
" style="fill:none;stroke:#009afa;stroke-linecap:round;"/>
   </g>
   <g id="line2d_18">
    <path clip-path="url(#pc18458034c)" d="M 37.379833 8.724569 
L 38.016083 8.964888 
L 38.652334 9.684899 
L 39.288585 10.881759 
L 39.924835 12.550745 
L 40.561086 14.68527 
L 41.833587 20.315438 
L 43.106088 27.683471 
L 44.378589 36.673171 
L 45.65109 47.142766 
L 47.559842 65.255031 
L 49.468593 85.679056 
L 52.649846 122.864904 
L 57.1036 175.344944 
L 59.012352 195.768969 
L 60.921103 213.881234 
L 62.193605 224.350829 
L 63.466106 233.340529 
L 64.738607 240.708562 
L 66.011108 246.33873 
L 66.647358 248.473255 
L 67.283609 250.142241 
L 67.91986 251.339101 
L 68.55611 252.059112 
L 69.192361 252.299431 
L 69.828611 252.059112 
L 70.464862 251.339101 
L 71.101112 250.142241 
L 71.737363 248.473255 
L 72.373614 246.33873 
L 73.646115 240.708562 
L 74.918616 233.340529 
L 76.191117 224.350829 
L 77.463618 213.881234 
L 79.37237 195.768969 
L 81.281121 175.344944 
L 84.462374 138.159096 
L 88.916128 85.679056 
L 90.82488 65.255031 
L 92.733631 47.142766 
L 94.006132 36.673171 
L 95.278634 27.683471 
L 96.551135 20.315438 
L 97.823636 14.68527 
L 98.459886 12.550745 
L 99.096137 10.881759 
L 99.732387 9.684899 
L 100.368638 8.964888 
L 101.004889 8.724569 
L 101.641139 8.964888 
L 102.27739 9.684899 
L 102.91364 10.881759 
L 103.549891 12.550745 
L 104.186141 14.68527 
L 105.458642 20.315438 
L 106.731144 27.683471 
L 108.003645 36.673171 
L 109.276146 47.142766 
L 111.184897 65.255031 
L 113.093649 85.679056 
L 116.274902 122.864904 
L 120.728656 175.344944 
L 122.637408 195.768969 
L 124.546159 213.881234 
L 125.81866 224.350829 
L 127.091161 233.340529 
L 128.363663 240.708562 
L 129.636164 246.33873 
L 130.272414 248.473255 
L 130.908665 250.142241 
L 131.544915 251.339101 
L 132.181166 252.059112 
L 132.817416 252.299431 
L 133.453667 252.059112 
L 134.089918 251.339101 
L 134.726168 250.142241 
L 135.362419 248.473255 
L 135.998669 246.33873 
L 137.27117 240.708562 
L 138.543671 233.340529 
L 139.816173 224.350829 
L 141.088674 213.881234 
L 142.997425 195.768969 
L 144.906177 175.344944 
L 148.08743 138.159096 
L 152.541184 85.679056 
L 154.449935 65.255031 
L 156.358687 47.142766 
L 157.631188 36.673171 
L 158.903689 27.683471 
L 160.17619 20.315438 
L 161.448692 14.68527 
L 162.084942 12.550745 
L 162.721193 10.881759 
L 163.357443 9.684899 
L 163.993694 8.964888 
L 164.629944 8.724569 
L 165.266195 8.964888 
L 165.902445 9.684899 
L 166.538696 10.881759 
L 167.174947 12.550745 
L 167.811197 14.68527 
L 169.083698 20.315438 
L 170.356199 27.683471 
L 171.6287 36.673171 
L 172.901202 47.142766 
L 174.809953 65.255031 
L 176.718705 85.679056 
L 179.899958 122.864904 
L 184.353712 175.344944 
L 186.262463 195.768969 
L 188.171215 213.881234 
L 189.443716 224.350829 
L 190.716217 233.340529 
L 191.988718 240.708562 
L 193.261219 246.33873 
L 193.89747 248.473255 
L 194.53372 250.142241 
L 195.169971 251.339101 
L 195.806222 252.059112 
L 196.442472 252.299431 
L 197.078723 252.059112 
L 197.714973 251.339101 
L 198.351224 250.142241 
L 198.987474 248.473255 
L 199.623725 246.33873 
L 200.896226 240.708562 
L 202.168727 233.340529 
L 203.441228 224.350829 
L 204.713729 213.881234 
L 206.622481 195.768969 
L 208.531233 175.344944 
L 211.712486 138.159096 
L 216.166239 85.679056 
L 218.074991 65.255031 
L 219.983743 47.142766 
L 221.256244 36.673171 
L 222.528745 27.683471 
L 223.801246 20.315438 
L 225.073747 14.68527 
L 225.709998 12.550745 
L 226.346248 10.881759 
L 226.982499 9.684899 
L 227.618749 8.964888 
L 228.255 8.724569 
L 228.891251 8.964888 
L 229.527501 9.684899 
L 230.163752 10.881759 
L 230.800002 12.550745 
L 231.436253 14.68527 
L 232.708754 20.315438 
L 233.981255 27.683471 
L 235.253756 36.673171 
L 236.526257 47.142766 
L 238.435009 65.255031 
L 240.343761 85.679056 
L 243.525013 122.864904 
L 247.978767 175.344944 
L 249.887519 195.768969 
L 251.796271 213.881234 
L 253.068772 224.350829 
L 254.341273 233.340529 
L 255.613774 240.708562 
L 256.886275 246.33873 
L 257.522526 248.473255 
L 258.158776 250.142241 
L 258.795027 251.339101 
L 259.431277 252.059112 
L 260.067528 252.299431 
L 260.703778 252.059112 
L 261.340029 251.339101 
L 261.97628 250.142241 
L 262.61253 248.473255 
L 263.248781 246.33873 
L 264.521282 240.708562 
L 265.793783 233.340529 
L 267.066284 224.350829 
L 268.338785 213.881234 
L 270.247537 195.768969 
L 272.156288 175.344944 
L 275.337541 138.159096 
L 279.791295 85.679056 
L 281.700047 65.255031 
L 283.608798 47.142766 
L 284.8813 36.673171 
L 286.153801 27.683471 
L 287.426302 20.315438 
L 288.698803 14.68527 
L 289.335053 12.550745 
L 289.971304 10.881759 
L 290.607555 9.684899 
L 291.243805 8.964888 
L 291.880056 8.724569 
L 292.516306 8.964888 
L 293.152557 9.684899 
L 293.788807 10.881759 
L 294.425058 12.550745 
L 295.061308 14.68527 
L 296.33381 20.315438 
L 297.606311 27.683471 
L 298.878812 36.673171 
L 300.151313 47.142766 
L 302.060065 65.255031 
L 303.968816 85.679056 
L 307.150069 122.864904 
L 311.603823 175.344944 
L 313.512575 195.768969 
L 315.421326 213.881234 
L 316.693827 224.350829 
L 317.966329 233.340529 
L 319.23883 240.708562 
L 320.511331 246.33873 
L 321.147581 248.473255 
L 321.783832 250.142241 
L 322.420082 251.339101 
L 323.056333 252.059112 
L 323.692584 252.299431 
L 324.328834 252.059112 
L 324.965085 251.339101 
L 325.601335 250.142241 
L 326.237586 248.473255 
L 326.873836 246.33873 
L 328.146337 240.708562 
L 329.418839 233.340529 
L 330.69134 224.350829 
L 331.963841 213.881234 
L 333.872592 195.768969 
L 335.781344 175.344944 
L 338.962597 138.159096 
L 343.416351 85.679056 
L 345.325103 65.255031 
L 347.233854 47.142766 
L 348.506355 36.673171 
L 349.778856 27.683471 
L 351.051358 20.315438 
L 352.323859 14.68527 
L 352.960109 12.550745 
L 353.59636 10.881759 
L 354.23261 9.684899 
L 354.868861 8.964888 
L 355.505111 8.724569 
L 356.141362 8.964888 
L 356.777613 9.684899 
L 357.413863 10.881759 
L 358.050114 12.550745 
L 358.686364 14.68527 
L 359.958865 20.315438 
L 361.231366 27.683471 
L 362.503868 36.673171 
L 363.776369 47.142766 
L 365.68512 65.255031 
L 367.593872 85.679056 
L 370.775125 122.864904 
L 375.228879 175.344944 
L 377.13763 195.768969 
L 379.046382 213.881234 
L 380.318883 224.350829 
L 381.591384 233.340529 
L 382.863885 240.708562 
L 384.136386 246.33873 
L 384.772637 248.473255 
L 385.408888 250.142241 
L 386.045138 251.339101 
L 386.681389 252.059112 
L 387.317639 252.299431 
L 387.95389 252.059112 
L 388.59014 251.339101 
L 389.226391 250.142241 
L 389.862642 248.473255 
L 390.498892 246.33873 
L 391.771393 240.708562 
L 393.043894 233.340529 
L 394.316395 224.350829 
L 395.588897 213.881234 
L 397.497648 195.768969 
L 399.4064 175.344944 
L 402.587653 138.159096 
L 407.041407 85.679056 
L 408.950158 65.255031 
L 410.85891 47.142766 
L 412.131411 36.673171 
L 413.403912 27.683471 
L 414.676413 20.315438 
L 415.948914 14.68527 
L 416.585165 12.550745 
L 417.221415 10.881759 
L 417.857666 9.684899 
L 418.493917 8.964888 
L 419.130167 8.724569 
L 419.130167 8.724569 
" style="fill:none;stroke:#e36f47;stroke-linecap:round;"/>
   </g>
   <g id="patch_3">
    <path d="M 25.927323 259.606677 
L 25.927323 1.417323 
" style="fill:none;stroke:#000000;stroke-linecap:square;stroke-linejoin:miter;"/>
   </g>
   <g id="patch_4">
    <path d="M 25.927323 259.606677 
L 430.582677 259.606677 
" style="fill:none;stroke:#000000;stroke-linecap:square;stroke-linejoin:miter;"/>
   </g>
   <g id="line2d_19">
    <path clip-path="url(#pc18458034c)" d="M -1 223.040324 
L 433 223.040324 
" style="fill:none;stroke:#3ea44e;stroke-dasharray:3.7,1.6;stroke-dashoffset:0;"/>
   </g>
   <g id="line2d_20">
    <path clip-path="url(#pc18458034c)" d="M -1 130.309359 
L 433 130.309359 
" style="fill:none;stroke:#c371d2;stroke-dasharray:3.7,1.6;stroke-dashoffset:0;"/>
   </g>
   <g id="legend_1">
    <g id="patch_5">
     <path d="M 310.306427 55.604823 
L 424.982677 55.604823 
Q 426.582677 55.604823 426.582677 54.004823 
L 426.582677 7.017323 
Q 426.582677 5.417323 424.982677 5.417323 
L 310.306427 5.417323 
Q 308.706427 5.417323 308.706427 7.017323 
L 308.706427 54.004823 
Q 308.706427 55.604823 310.306427 55.604823 
z
" style="fill:#ffffff;stroke:#000000;stroke-linejoin:miter;"/>
    </g>
    <g id="line2d_21">
     <path d="M 311.906427 11.896073 
L 327.906427 11.896073 
" style="fill:none;stroke:#009afa;stroke-linecap:square;"/>
    </g>
    <g id="line2d_22"/>
    <g id="text_11">
     <!-- EMM - externi DC pole -->
     <defs>
      <path d="M 9.8125 72.90625 
L 55.90625 72.90625 
L 55.90625 64.59375 
L 19.671875 64.59375 
L 19.671875 43.015625 
L 54.390625 43.015625 
L 54.390625 34.71875 
L 19.671875 34.71875 
L 19.671875 8.296875 
L 56.78125 8.296875 
L 56.78125 0 
L 9.8125 0 
z
" id="DejaVuSans-69"/>
      <path d="M 9.8125 72.90625 
L 24.515625 72.90625 
L 43.109375 23.296875 
L 61.8125 72.90625 
L 76.515625 72.90625 
L 76.515625 0 
L 66.890625 0 
L 66.890625 64.015625 
L 48.09375 14.015625 
L 38.1875 14.015625 
L 19.390625 64.015625 
L 19.390625 0 
L 9.8125 0 
z
" id="DejaVuSans-77"/>
      <path id="DejaVuSans-32"/>
      <path d="M 4.890625 31.390625 
L 31.203125 31.390625 
L 31.203125 23.390625 
L 4.890625 23.390625 
z
" id="DejaVuSans-45"/>
      <path d="M 54.890625 54.6875 
L 35.109375 28.078125 
L 55.90625 0 
L 45.3125 0 
L 29.390625 21.484375 
L 13.484375 0 
L 2.875 0 
L 24.125 28.609375 
L 4.6875 54.6875 
L 15.28125 54.6875 
L 29.78125 35.203125 
L 44.28125 54.6875 
z
" id="DejaVuSans-120"/>
      <path d="M 41.109375 46.296875 
Q 39.59375 47.171875 37.8125 47.578125 
Q 36.03125 48 33.890625 48 
Q 26.265625 48 22.1875 43.046875 
Q 18.109375 38.09375 18.109375 28.8125 
L 18.109375 0 
L 9.078125 0 
L 9.078125 54.6875 
L 18.109375 54.6875 
L 18.109375 46.1875 
Q 20.953125 51.171875 25.484375 53.578125 
Q 30.03125 56 36.53125 56 
Q 37.453125 56 38.578125 55.875 
Q 39.703125 55.765625 41.0625 55.515625 
z
" id="DejaVuSans-114"/>
      <path d="M 54.890625 33.015625 
L 54.890625 0 
L 45.90625 0 
L 45.90625 32.71875 
Q 45.90625 40.484375 42.875 44.328125 
Q 39.84375 48.1875 33.796875 48.1875 
Q 26.515625 48.1875 22.3125 43.546875 
Q 18.109375 38.921875 18.109375 30.90625 
L 18.109375 0 
L 9.078125 0 
L 9.078125 54.6875 
L 18.109375 54.6875 
L 18.109375 46.1875 
Q 21.34375 51.125 25.703125 53.5625 
Q 30.078125 56 35.796875 56 
Q 45.21875 56 50.046875 50.171875 
Q 54.890625 44.34375 54.890625 33.015625 
z
" id="DejaVuSans-110"/>
      <path d="M 9.421875 54.6875 
L 18.40625 54.6875 
L 18.40625 0 
L 9.421875 0 
z
M 9.421875 75.984375 
L 18.40625 75.984375 
L 18.40625 64.59375 
L 9.421875 64.59375 
z
" id="DejaVuSans-105"/>
      <path d="M 19.671875 64.796875 
L 19.671875 8.109375 
L 31.59375 8.109375 
Q 46.6875 8.109375 53.6875 14.9375 
Q 60.6875 21.78125 60.6875 36.53125 
Q 60.6875 51.171875 53.6875 57.984375 
Q 46.6875 64.796875 31.59375 64.796875 
z
M 9.8125 72.90625 
L 30.078125 72.90625 
Q 51.265625 72.90625 61.171875 64.09375 
Q 71.09375 55.28125 71.09375 36.53125 
Q 71.09375 17.671875 61.125 8.828125 
Q 51.171875 0 30.078125 0 
L 9.8125 0 
z
" id="DejaVuSans-68"/>
      <path d="M 64.40625 67.28125 
L 64.40625 56.890625 
Q 59.421875 61.53125 53.78125 63.8125 
Q 48.140625 66.109375 41.796875 66.109375 
Q 29.296875 66.109375 22.65625 58.46875 
Q 16.015625 50.828125 16.015625 36.375 
Q 16.015625 21.96875 22.65625 14.328125 
Q 29.296875 6.6875 41.796875 6.6875 
Q 48.140625 6.6875 53.78125 8.984375 
Q 59.421875 11.28125 64.40625 15.921875 
L 64.40625 5.609375 
Q 59.234375 2.09375 53.4375 0.328125 
Q 47.65625 -1.421875 41.21875 -1.421875 
Q 24.65625 -1.421875 15.125 8.703125 
Q 5.609375 18.84375 5.609375 36.375 
Q 5.609375 53.953125 15.125 64.078125 
Q 24.65625 74.21875 41.21875 74.21875 
Q 47.75 74.21875 53.53125 72.484375 
Q 59.328125 70.75 64.40625 67.28125 
z
" id="DejaVuSans-67"/>
     </defs>
     <g transform="translate(334.306427 14.696073)scale(0.08 -0.08)">
      <use xlink:href="#DejaVuSans-69"/>
      <use x="63.183594" xlink:href="#DejaVuSans-77"/>
      <use x="149.462891" xlink:href="#DejaVuSans-77"/>
      <use x="235.742188" xlink:href="#DejaVuSans-32"/>
      <use x="267.529297" xlink:href="#DejaVuSans-45"/>
      <use x="303.613281" xlink:href="#DejaVuSans-32"/>
      <use x="335.400391" xlink:href="#DejaVuSans-101"/>
      <use x="396.908203" xlink:href="#DejaVuSans-120"/>
      <use x="456.087891" xlink:href="#DejaVuSans-116"/>
      <use x="495.296875" xlink:href="#DejaVuSans-101"/>
      <use x="556.820312" xlink:href="#DejaVuSans-114"/>
      <use x="597.917969" xlink:href="#DejaVuSans-110"/>
      <use x="661.296875" xlink:href="#DejaVuSans-105"/>
      <use x="689.080078" xlink:href="#DejaVuSans-32"/>
      <use x="720.867188" xlink:href="#DejaVuSans-68"/>
      <use x="797.869141" xlink:href="#DejaVuSans-67"/>
      <use x="867.693359" xlink:href="#DejaVuSans-32"/>
      <use x="899.480469" xlink:href="#DejaVuSans-112"/>
      <use x="962.957031" xlink:href="#DejaVuSans-111"/>
      <use x="1024.138672" xlink:href="#DejaVuSans-108"/>
      <use x="1051.921875" xlink:href="#DejaVuSans-101"/>
     </g>
    </g>
    <g id="line2d_23">
     <path d="M 311.906427 23.638573 
L 327.906427 23.638573 
" style="fill:none;stroke:#e36f47;stroke-linecap:square;"/>
    </g>
    <g id="line2d_24"/>
    <g id="text_12">
     <!-- EMM - fazovy rozdil -->
     <defs>
      <path d="M 37.109375 75.984375 
L 37.109375 68.5 
L 28.515625 68.5 
Q 23.6875 68.5 21.796875 66.546875 
Q 19.921875 64.59375 19.921875 59.515625 
L 19.921875 54.6875 
L 34.71875 54.6875 
L 34.71875 47.703125 
L 19.921875 47.703125 
L 19.921875 0 
L 10.890625 0 
L 10.890625 47.703125 
L 2.296875 47.703125 
L 2.296875 54.6875 
L 10.890625 54.6875 
L 10.890625 58.5 
Q 10.890625 67.625 15.140625 71.796875 
Q 19.390625 75.984375 28.609375 75.984375 
z
" id="DejaVuSans-102"/>
      <path d="M 5.515625 54.6875 
L 48.1875 54.6875 
L 48.1875 46.484375 
L 14.40625 7.171875 
L 48.1875 7.171875 
L 48.1875 0 
L 4.296875 0 
L 4.296875 8.203125 
L 38.09375 47.515625 
L 5.515625 47.515625 
z
" id="DejaVuSans-122"/>
      <path d="M 2.984375 54.6875 
L 12.5 54.6875 
L 29.59375 8.796875 
L 46.6875 54.6875 
L 56.203125 54.6875 
L 35.6875 0 
L 23.484375 0 
z
" id="DejaVuSans-118"/>
      <path d="M 32.171875 -5.078125 
Q 28.375 -14.84375 24.75 -17.8125 
Q 21.140625 -20.796875 15.09375 -20.796875 
L 7.90625 -20.796875 
L 7.90625 -13.28125 
L 13.1875 -13.28125 
Q 16.890625 -13.28125 18.9375 -11.515625 
Q 21 -9.765625 23.484375 -3.21875 
L 25.09375 0.875 
L 2.984375 54.6875 
L 12.5 54.6875 
L 29.59375 11.921875 
L 46.6875 54.6875 
L 56.203125 54.6875 
z
" id="DejaVuSans-121"/>
      <path d="M 45.40625 46.390625 
L 45.40625 75.984375 
L 54.390625 75.984375 
L 54.390625 0 
L 45.40625 0 
L 45.40625 8.203125 
Q 42.578125 3.328125 38.25 0.953125 
Q 33.9375 -1.421875 27.875 -1.421875 
Q 17.96875 -1.421875 11.734375 6.484375 
Q 5.515625 14.40625 5.515625 27.296875 
Q 5.515625 40.1875 11.734375 48.09375 
Q 17.96875 56 27.875 56 
Q 33.9375 56 38.25 53.625 
Q 42.578125 51.265625 45.40625 46.390625 
z
M 14.796875 27.296875 
Q 14.796875 17.390625 18.875 11.75 
Q 22.953125 6.109375 30.078125 6.109375 
Q 37.203125 6.109375 41.296875 11.75 
Q 45.40625 17.390625 45.40625 27.296875 
Q 45.40625 37.203125 41.296875 42.84375 
Q 37.203125 48.484375 30.078125 48.484375 
Q 22.953125 48.484375 18.875 42.84375 
Q 14.796875 37.203125 14.796875 27.296875 
z
" id="DejaVuSans-100"/>
     </defs>
     <g transform="translate(334.306427 26.438573)scale(0.08 -0.08)">
      <use xlink:href="#DejaVuSans-69"/>
      <use x="63.183594" xlink:href="#DejaVuSans-77"/>
      <use x="149.462891" xlink:href="#DejaVuSans-77"/>
      <use x="235.742188" xlink:href="#DejaVuSans-32"/>
      <use x="267.529297" xlink:href="#DejaVuSans-45"/>
      <use x="303.613281" xlink:href="#DejaVuSans-32"/>
      <use x="335.400391" xlink:href="#DejaVuSans-102"/>
      <use x="370.605469" xlink:href="#DejaVuSans-97"/>
      <use x="431.884766" xlink:href="#DejaVuSans-122"/>
      <use x="484.375" xlink:href="#DejaVuSans-111"/>
      <use x="545.556641" xlink:href="#DejaVuSans-118"/>
      <use x="604.736328" xlink:href="#DejaVuSans-121"/>
      <use x="663.916016" xlink:href="#DejaVuSans-32"/>
      <use x="695.703125" xlink:href="#DejaVuSans-114"/>
      <use x="736.785156" xlink:href="#DejaVuSans-111"/>
      <use x="797.966797" xlink:href="#DejaVuSans-122"/>
      <use x="850.457031" xlink:href="#DejaVuSans-100"/>
      <use x="913.933594" xlink:href="#DejaVuSans-105"/>
      <use x="941.716797" xlink:href="#DejaVuSans-108"/>
     </g>
    </g>
    <g id="line2d_25">
     <path d="M 311.906427 35.381073 
L 327.906427 35.381073 
" style="fill:none;stroke:#3ea44e;stroke-dasharray:3.7,1.6;stroke-dashoffset:0;"/>
    </g>
    <g id="line2d_26"/>
    <g id="text_13">
     <!-- $ \left&lt; T_{\rm{EMM}} \right&gt;;\,\,\, E_{\rm{dc}} = 1 \, \rm{V/m} $ -->
     <defs>
      <path d="M 8.9375 31.34375 
L 22.703125 75.875 
L 31 75.875 
L 17.234375 31.34375 
L 31 -13.1875 
L 22.703125 -13.1875 
z
" id="DejaVuSans-10216"/>
      <path d="M 30.078125 31.34375 
L 16.3125 -13.1875 
L 8.015625 -13.1875 
L 21.78125 31.34375 
L 8.015625 75.875 
L 16.3125 75.875 
z
" id="DejaVuSans-10217"/>
      <path d="M 11.71875 51.703125 
L 22.015625 51.703125 
L 22.015625 39.3125 
L 11.71875 39.3125 
z
M 11.71875 12.40625 
L 22.015625 12.40625 
L 22.015625 4 
L 14.015625 -11.625 
L 7.71875 -11.625 
L 11.71875 4 
z
" id="DejaVuSans-59"/>
      <path d="M 16.890625 72.90625 
L 62.984375 72.90625 
L 61.375 64.59375 
L 25.09375 64.59375 
L 20.90625 43.015625 
L 55.71875 43.015625 
L 54.109375 34.71875 
L 19.28125 34.71875 
L 14.203125 8.296875 
L 51.3125 8.296875 
L 49.703125 0 
L 2.6875 0 
z
" id="DejaVuSans-Oblique-69"/>
      <path d="M 10.59375 45.40625 
L 73.1875 45.40625 
L 73.1875 37.203125 
L 10.59375 37.203125 
z
M 10.59375 25.484375 
L 73.1875 25.484375 
L 73.1875 17.1875 
L 10.59375 17.1875 
z
" id="DejaVuSans-61"/>
      <path d="M 28.609375 0 
L 0.78125 72.90625 
L 11.078125 72.90625 
L 34.1875 11.53125 
L 57.328125 72.90625 
L 67.578125 72.90625 
L 39.796875 0 
z
" id="DejaVuSans-86"/>
     </defs>
     <g transform="translate(334.306427 38.181073)scale(0.08 -0.08)">
      <use transform="translate(0 0.125)" xlink:href="#DejaVuSans-10216"/>
      <use transform="translate(39.013672 0.125)" xlink:href="#DejaVuSans-Oblique-84"/>
      <use transform="translate(100.097656 -16.28125)scale(0.7)" xlink:href="#DejaVuSans-69"/>
      <use transform="translate(144.326172 -16.28125)scale(0.7)" xlink:href="#DejaVuSans-77"/>
      <use transform="translate(204.72168 -16.28125)scale(0.7)" xlink:href="#DejaVuSans-77"/>
      <use transform="translate(267.851562 0.125)" xlink:href="#DejaVuSans-10217"/>
      <use transform="translate(306.865234 0.125)" xlink:href="#DejaVuSans-59"/>
      <use transform="translate(408.746091 0.125)" xlink:href="#DejaVuSans-Oblique-69"/>
      <use transform="translate(471.929685 -16.28125)scale(0.7)" xlink:href="#DejaVuSans-100"/>
      <use transform="translate(516.363279 -16.28125)scale(0.7)" xlink:href="#DejaVuSans-99"/>
      <use transform="translate(577.066404 0.125)" xlink:href="#DejaVuSans-61"/>
      <use transform="translate(680.337888 0.125)" xlink:href="#DejaVuSans-49"/>
      <use transform="translate(760.196611 0.125)" xlink:href="#DejaVuSans-86"/>
      <use transform="translate(828.604814 0.125)" xlink:href="#DejaVuSans-47"/>
      <use transform="translate(862.296221 0.125)" xlink:href="#DejaVuSans-109"/>
     </g>
    </g>
    <g id="line2d_27">
     <path d="M 311.906427 47.124823 
L 327.906427 47.124823 
" style="fill:none;stroke:#c371d2;stroke-dasharray:3.7,1.6;stroke-dashoffset:0;"/>
    </g>
    <g id="line2d_28"/>
    <g id="text_14">
     <!-- $ \left&lt; T_{\rm{ph}} \right&gt;;\,\,\, \varphi_{\rm{ac}} = 0,2 \, \rm{mrad}  $ -->
     <defs>
      <path d="M 46.203125 -16.40625 
L 38.703125 -16.40625 
L 11.59375 45.09375 
L 38.703125 106.59375 
L 46.203125 106.59375 
L 19.09375 45.09375 
z
" id="STIXSizeOneSym-Regular-10216"/>
      <path d="M 54.890625 33.015625 
L 54.890625 0 
L 45.90625 0 
L 45.90625 32.71875 
Q 45.90625 40.484375 42.875 44.328125 
Q 39.84375 48.1875 33.796875 48.1875 
Q 26.515625 48.1875 22.3125 43.546875 
Q 18.109375 38.921875 18.109375 30.90625 
L 18.109375 0 
L 9.078125 0 
L 9.078125 75.984375 
L 18.109375 75.984375 
L 18.109375 46.1875 
Q 21.34375 51.125 25.703125 53.5625 
Q 30.078125 56 35.796875 56 
Q 45.21875 56 50.046875 50.171875 
Q 54.890625 44.34375 54.890625 33.015625 
z
" id="DejaVuSans-104"/>
      <path d="M 46.203125 45.09375 
L 19.09375 -16.40625 
L 11.59375 -16.40625 
L 38.703125 45.09375 
L 11.59375 106.59375 
L 19.09375 106.59375 
z
" id="STIXSizeOneSym-Regular-10217"/>
      <path d="M 46.390625 47.40625 
Q 43.21875 47.40625 41.796875 40.328125 
L 35.296875 6.84375 
Q 39.890625 6.84375 45.5625 11.921875 
Q 50.6875 16.453125 52.734375 27.34375 
Q 54.640625 37.5 51.5625 42.96875 
Q 49.03125 47.40625 46.390625 47.40625 
z
M 47.859375 55.078125 
Q 54.890625 55.078125 59.671875 48.640625 
Q 64.796875 41.75 62.203125 27.34375 
Q 59.8125 14.109375 51.421875 6.25 
Q 43.5 -1.171875 33.734375 -1.171875 
L 29.9375 -20.796875 
L 21 -20.796875 
L 24.8125 -1.21875 
Q 15.046875 -1.21875 10.015625 6.25 
Q 4.828125 13.875 7.421875 27.296875 
Q 10.109375 41.265625 18.21875 48.390625 
Q 24.3125 53.71875 32.5625 55.078125 
L 31 47.125 
Q 27.59375 46 24.03125 42.1875 
Q 18.65625 36.578125 16.890625 27.296875 
Q 15.046875 17.4375 18.0625 11.8125 
Q 20.84375 6.78125 26.375 6.78125 
L 32.859375 40.328125 
Q 35.75 55.078125 47.859375 55.078125 
z
" id="DejaVuSans-Oblique-966"/>
      <path d="M 11.71875 12.40625 
L 22.015625 12.40625 
L 22.015625 4 
L 14.015625 -11.625 
L 7.71875 -11.625 
L 11.71875 4 
z
" id="DejaVuSans-44"/>
     </defs>
     <g transform="translate(334.306427 49.924823)scale(0.08 -0.08)">
      <use transform="translate(0 -17.104687)scale(0.844474)" xlink:href="#STIXSizeOneSym-Regular-10216"/>
      <use transform="translate(48.804855 0.015625)" xlink:href="#DejaVuSans-Oblique-84"/>
      <use transform="translate(109.88884 -16.390625)scale(0.7)" xlink:href="#DejaVuSans-112"/>
      <use transform="translate(154.322433 -16.390625)scale(0.7)" xlink:href="#DejaVuSans-104"/>
      <use transform="translate(201.422043 -17.104687)scale(0.844474)" xlink:href="#STIXSizeOneSym-Regular-10217"/>
      <use transform="translate(250.226898 0.015625)" xlink:href="#DejaVuSans-59"/>
      <use transform="translate(352.107755 0.015625)" xlink:href="#DejaVuSans-Oblique-966"/>
      <use transform="translate(418.074552 -16.390625)scale(0.7)" xlink:href="#DejaVuSans-97"/>
      <use transform="translate(460.97006 -16.390625)scale(0.7)" xlink:href="#DejaVuSans-99"/>
      <use transform="translate(521.673185 0.015625)" xlink:href="#DejaVuSans-61"/>
      <use transform="translate(624.944669 0.015625)" xlink:href="#DejaVuSans-48"/>
      <use transform="translate(688.567716 0.015625)" xlink:href="#DejaVuSans-44"/>
      <use transform="translate(739.837247 0.015625)" xlink:href="#DejaVuSans-50"/>
      <use transform="translate(819.69597 0.015625)" xlink:href="#DejaVuSans-109"/>
      <use transform="translate(917.10808 0.015625)" xlink:href="#DejaVuSans-114"/>
      <use transform="translate(958.221361 0.015625)" xlink:href="#DejaVuSans-97"/>
      <use transform="translate(1019.500658 0.015625)" xlink:href="#DejaVuSans-100"/>
     </g>
    </g>
   </g>
  </g>
 </g>
 <defs>
  <clipPath id="pc18458034c">
   <rect height="258.189354" width="404.655354" x="25.927323" y="1.417323"/>
  </clipPath>
 </defs>
</svg>
